<svg height='100px' width='100px'  fill="#073642" xmlns="http://www.w3.org/2000/svg" viewBox="0 0 64 64" x="0px" y="0px"><g><path d="M60,59V54.667a4.988,4.988,0,0,0-3.077-4.616l-4.05-1.687a24.871,24.871,0,0,0-3.8-22.256l.589-14.748A9,9,0,0,0,40.674,2H17.326a9,9,0,0,0-8.992,9.36l.589,14.748A24.987,24.987,0,0,0,12.758,60H6v2H62V60H59.816A2.966,2.966,0,0,0,60,59Zm-2-4.333V56H43.63A3.824,3.824,0,0,1,47,54a5.822,5.822,0,0,0,5.236-3.236l.207-.413L56.154,51.9A2.994,2.994,0,0,1,58,54.667ZM23.956,32.458A9.248,9.248,0,0,1,25.8,40.305L25.442,41.9l-5.961-4.967Zm1.414-1.414L30,26.414l2.009,2.009A10.011,10.011,0,0,0,42,38h1.719l.5,2H38v2h6.719l.5,2H39v2h6.719l.311,1.243a1,1,0,0,0,.585.68l3.977,1.657-.145.29A3.832,3.832,0,0,1,47,52a5.822,5.822,0,0,0-5.236,3.236l-.094.187-14.5-12.082.578-2.6A11.232,11.232,0,0,0,25.37,31.044ZM6,41a22.785,22.785,0,0,1,4.731-13.967,1,1,0,0,0,.205-.648l-.6-15.105A7,7,0,0,1,17.326,4H40.674a7,7,0,0,1,6.994,7.28l-.6,15.105a1,1,0,0,0,.2.648A22.884,22.884,0,0,1,51.02,47.592L47.848,46.27,45.47,36.757A1,1,0,0,0,44.5,36H42a8.009,8.009,0,0,1-8-8,1,1,0,0,0-.293-.707l-3-3a1,1,0,0,0-1.414,0l-12,12L15.835,37.75a3,3,0,0,0,.192,4.419L37.255,60H16.041A22.967,22.967,0,0,1,6,41ZM40.364,60,17.314,40.638a1,1,0,0,1-.064-1.473l.812-.812,23.3,19.415A1,1,0,0,0,42,58H58v1a1,1,0,0,1-1,1Z"></path><path d="M29,18a22.822,22.822,0,0,1,13.559,4.425,1,1,0,0,0,1.588-.744l.585-9.369A5,5,0,0,0,39.742,7H18.258a5,5,0,0,0-4.99,5.312l.585,9.369a1,1,0,0,0,1.588.744A22.822,22.822,0,0,1,29,18ZM16.071,9.946A2.974,2.974,0,0,1,18.258,9H39.742a3,3,0,0,1,2.994,3.187l-.476,7.62a25,25,0,0,0-26.52,0l-.476-7.62A2.968,2.968,0,0,1,16.071,9.946Z"></path><path d="M55.847,43.894l1.988.212A29.167,29.167,0,0,0,58,41a28.829,28.829,0,0,0-5.179-16.544L51.179,25.6A26.832,26.832,0,0,1,56,41,27.306,27.306,0,0,1,55.847,43.894Z"></path><path d="M10,41a18.8,18.8,0,0,1,2.027-8.549l-1.785-.9a21.041,21.041,0,0,0,0,18.9l1.785-.9A18.8,18.8,0,0,1,10,41Z"></path><path d="M11.459,52.551a21.212,21.212,0,0,0,1.583,2.1l1.519-1.3a19.158,19.158,0,0,1-1.432-1.9Z"></path><rect x="2" y="60" width="2" height="2"></rect></g></svg>