<svg height='100px' width='100px'  fill="#ffffff" xmlns="http://www.w3.org/2000/svg" xmlns:xlink="http://www.w3.org/1999/xlink" version="1.1" x="0px" y="0px" viewBox="0 0 128 128" style="enable-background:new 0 0 128 128;" xml:space="preserve"><g><path d="M123.2,42.2l-8.4-39.7c-0.1-0.5-0.4-0.8-0.7-0.9c-0.2-0.2-0.6-0.3-1.2-0.2c-0.2,0-0.3,0.1-0.5,0.2L77.8,22.3   c-0.7,0.4-1,1.4-0.5,2.1c0.2,0.3,0.4,0.5,0.7,0.6l9.5,4.1l-1.9,4.9C85,35.7,70.5,72.6,12.7,72.6c-2.2,0-4.6-0.1-6.9-0.2l-0.3,0   c0,0,0,0,0,0c-0.2,0-0.3,0.1-0.5,0.2c-0.1,0.1-0.2,0.3-0.2,0.5c0,0.3,0.2,0.6,0.5,0.7l0.2,0.1C18,78.1,31,80.3,44.2,80.5   c47.7,0,64.8-35.5,65-35.9l2.3-4.9l9.7,4.2c0.4,0.2,0.9,0.1,1.1,0c0.3-0.1,0.6-0.3,0.8-0.8C123.3,42.8,123.3,42.5,123.2,42.2z"></path><path d="M11.6,126.7h24.9V90.6c-8.4-0.6-16.7-1.9-24.9-4V126.7z"></path><path d="M91.5,77.9v48.8h24.9V53.2l-0.1,0C112.7,58.9,104.8,69.4,91.5,77.9z"></path><path d="M51.5,126.7h24.9V85.4C69.2,88.1,61,90,51.5,90.7V126.7z"></path></g></svg>