<?xml version="1.0" encoding="UTF-8"?>
<!-- Created with Inkscape (http://www.inkscape.org/) -->
<svg width="49.906mm" height="86.804mm" version="1.1" viewBox="0 0 49.906 86.804" xmlns="http://www.w3.org/2000/svg">
 <g transform="translate(82.007 -67.365)">
  <g fill="#fff" stroke-width="3.127" aria-label="?">
   <path d="m-66.998 120.77h16.01c-1.5009-14.509 18.887-16.51 18.887-33.021 0-13.759-11.257-20.388-25.641-20.388-9.8812 0-18.261 4.6279-24.265 11.257l10.256 9.3809c3.7523-3.3771 7.6298-5.7536 12.758-5.7536 5.2533 0 9.2558 2.6266 9.2558 7.8799 0 9.2558-20.012 13.884-17.261 30.644zm8.5053 33.396c7.1294 0 12.508-5.2533 12.508-12.758 0-7.3796-5.3784-12.508-12.508-12.508-7.1294 0-12.508 5.1282-12.508 12.508 0 7.5047 5.3784 12.758 12.508 12.758z" fill="#fff"/>
  </g>
 </g>
</svg>
